<?xml version="1.0" standalone="no"?>
<!DOCTYPE svg PUBLIC "-//W3C//DTD SVG 20010904//EN"
 "http://www.w3.org/TR/2001/REC-SVG-20010904/DTD/svg10.dtd">
<svg version="1.0" xmlns="http://www.w3.org/2000/svg"
 width="120.000000pt" height="92.000000pt" viewBox="0 0 120.000000 92.000000"
 preserveAspectRatio="xMidYMid meet">
<metadata>
Created by potrace 1.10, written by Peter Selinger 2001-2011
</metadata>
<g transform="translate(0.000000,92.000000) scale(0.100000,-0.100000)"
fill="#000000" stroke="none">
<path d="M550 678 c0 -4 -6 -8 -12 -8 -15 0 -48 -54 -48 -77 0 -19 -50 -79
-51 -61 -4 67 -23 104 -40 78 -12 -18 -2 -77 17 -104 8 -11 14 -37 14 -58 l0
-38 -46 0 c-38 0 -45 -3 -42 -17 2 -13 15 -19 44 -21 40 -3 42 -5 48 -43 5
-31 2 -47 -13 -68 -26 -36 -31 -84 -10 -89 12 -2 18 7 23 31 9 51 29 64 52 34
52 -64 173 -64 230 1 18 20 22 21 33 8 12 -14 18 -35 20 -63 1 -16 27 -17 37
-2 6 11 -23 89 -38 100 -5 3 -6 16 -4 30 3 13 5 32 5 41 1 13 12 18 43 20 31
2 44 8 46 21 3 14 -4 17 -42 17 -46 0 -46 0 -46 35 0 20 7 46 14 58 8 12 18
40 22 63 5 33 3 42 -10 47 -18 7 -21 2 -31 -56 l-6 -37 -25 29 c-13 16 -25 41
-26 55 -1 14 -6 26 -10 26 -4 0 -8 6 -8 13 0 20 -63 48 -103 45 -20 -1 -37 -6
-37 -10z m98 -41 c7 -6 17 -18 22 -26 7 -14 -2 -16 -71 -16 -76 0 -78 0 -65
20 26 40 78 50 114 22z m53 -108 c28 -26 29 -30 29 -116 0 -103 -15 -145 -60
-168 -16 -8 -34 -15 -40 -15 -6 0 -10 51 -10 146 0 133 -1 145 -17 142 -16 -3
-19 -21 -23 -151 l-5 -147 -35 18 c-53 26 -70 69 -69 179 1 72 5 95 18 107 28
26 64 35 124 34 49 -1 63 -6 88 -29z"/>
</g>
</svg>
